<?xml version="1.0" encoding="utf-8"?>
<!-- Generator: Adobe Illustrator 18.0.0, SVG Export Plug-In . SVG Version: 6.00 Build 0)  -->
<!DOCTYPE svg PUBLIC "-//W3C//DTD SVG 1.1//EN" "http://www.w3.org/Graphics/SVG/1.1/DTD/svg11.dtd">
<svg version="1.1" id="Layer_1" xmlns="http://www.w3.org/2000/svg" xmlns:xlink="http://www.w3.org/1999/xlink" x="0px" y="0px"
	 viewBox="0 0 52.9 43.4" enable-background="new 0 0 52.9 43.4" xml:space="preserve">
<g>
	<g>
		<g>
			<g>
				<path fill="#F9F9F9" d="M50.6,4.6H1.2C-1.1,2.5,0.3,0,2.3,0l49.4,0C54,2,52.6,4.6,50.6,4.6z"/>
			</g>
			<g>
				<path fill="#F9F9F9" d="M51.1,17.5H13.2c-1,0-1.8-1-1.8-2.3s0.8-2.3,1.8-2.3h37.8c1,0,1.8,1,1.8,2.3S52.1,17.5,51.1,17.5z"/>
			</g>
			<g>
				<path fill="#F9F9F9" d="M50.6,30.4H1.2c-2.3-2-0.9-4.6,1.1-4.6h49.4C54,27.9,52.6,30.4,50.6,30.4z"/>
			</g>
			<g>
				<path fill="#F9F9F9" d="M51.3,43.4H19.1c-0.8,0-1.5-1-1.5-2.3s0.7-2.3,1.5-2.3h32.3c0.8,0,1.5,1,1.5,2.3S52.2,43.4,51.3,43.4z"
					/>
			</g>
		</g>
	</g>
</g>
</svg>
